<svg xmlns="http://www.w3.org/2000/svg" width="1200" height="620" viewBox="0 0 1200 620" role="img" aria-label="Architecture overview">
  <rect width="1200" height="620" fill="#ffffff"/>
  <text x="600" y="45" font-family="Arial, Helvetica, sans-serif" font-size="30" text-anchor="middle" fill="#1f2937" font-weight="700">Architecture Overview</text>
  <g font-family="Arial, Helvetica, sans-serif" fill="#1f2937">
    <rect x="180" y="90" width="840" height="60" rx="8" fill="#f3f4f6" stroke="#9ca3af"/>
    <text x="600" y="128" text-anchor="middle" font-size="20">Ingestion</text>

    <rect x="180" y="170" width="840" height="60" rx="8" fill="#f3f4f6" stroke="#9ca3af"/>
    <text x="600" y="208" text-anchor="middle" font-size="20">Parsing and Canonicalization</text>

    <rect x="180" y="250" width="840" height="60" rx="8" fill="#f3f4f6" stroke="#9ca3af"/>
    <text x="600" y="288" text-anchor="middle" font-size="20">Relation Extraction</text>

    <rect x="180" y="330" width="840" height="60" rx="8" fill="#f3f4f6" stroke="#9ca3af"/>
    <text x="600" y="368" text-anchor="middle" font-size="20">Graph Loading</text>

    <rect x="180" y="410" width="840" height="60" rx="8" fill="#f3f4f6" stroke="#9ca3af"/>
    <text x="600" y="448" text-anchor="middle" font-size="20">Retrieval / Planner / Review / Answer Bundle</text>

    <rect x="180" y="490" width="840" height="60" rx="8" fill="#e5eef8" stroke="#0f4c81"/>
    <text x="600" y="528" text-anchor="middle" font-size="20">Future: Timeline / State / Transition Evolution (LGWM-Oriented)</text>
  </g>
  <g stroke="#6b7280" stroke-width="2" fill="none">
    <path d="M600 150 V170"/>
    <path d="M600 230 V250"/>
    <path d="M600 310 V330"/>
    <path d="M600 390 V410"/>
    <path d="M600 470 V490"/>
  </g>
</svg>
